<?xml version="1.0" encoding="iso-8859-1"?>
<!-- Generator: Adobe Illustrator 19.0.0, SVG Export Plug-In . SVG Version: 6.00 Build 0)  -->
<svg version="1.1" id="Capa_1" xmlns="http://www.w3.org/2000/svg" xmlns:xlink="http://www.w3.org/1999/xlink" x="0px" y="0px"
	 viewBox="0 0 512 512" style="enable-background:new 0 0 512 512;" xml:space="preserve">
<path style="fill:#FD4E26;" d="M467,0H362v47c0,8.291-6.709,15-15,15s-15-6.709-15-15V0H45C20.099,0,0,22.099,0,47v240
	c0,24.901,20.099,45,45,45h422c24.901,0,45-20.099,45-45V47C512,22.099,491.901,0,467,0z M362,218.563c0,8.291-6.709,15-15,15
	s-15-6.709-15-15V197c0-8.291,6.709-15,15-15s15,6.709,15,15V218.563z M362,137c0,8.291-6.709,15-15,15s-15-6.709-15-15v-30
	c0-8.291,6.709-15,15-15s15,6.709,15,15V137z"/>
<path style="fill:#FD3018;" d="M0,167v120c0,24.901,20.099,45,45,45h422c24.901,0,45-20.099,45-45V167H0z M362,218.563
	c0,8.291-6.709,15-15,15s-15-6.709-15-15V197c0-8.291,6.709-15,15-15s15,6.709,15,15V218.563z"/>
<path style="fill:#FEDB41;" d="M107,152c-24.814,0-45-20.186-45-45s20.186-45,45-45s45,20.186,45,45S131.814,152,107,152z"/>
<path style="fill:#FCBF29;" d="M227,272c-24.814,0-45-20.186-45-45s20.186-45,45-45s45,20.186,45,45S251.814,272,227,272z"/>
<path style="fill:#FEDB41;" d="M239.599,85.401L185.3,167l-65.7,98.401c-4.499,6.599-13.799,8.699-21,4.199
	c-6.899-4.799-8.699-14.099-4.199-21L148.7,167l65.7-98.401c4.799-6.899,14.099-8.699,21-4.199
	C242.3,69.2,244.1,78.5,239.599,85.401z"/>
<polygon style="fill:#A4D9F5;" points="352.643,294.623 316.832,347.157 373.565,432.065 413.72,386.983 "/>
<path style="fill:#CAE8F9;" d="M421.099,254.9L332,375.801l-44.399,60.298L253.1,383.301l78.9-110.7l60.601-85.201
	c2.999-4.2,8.099-6.599,13.2-6.301c5.4,0.3,9.899,3.602,12.299,8.101l4.501,9C431.6,216.2,431,237.499,421.099,254.9z"/>
<path style="fill:#B7E0F6;" d="M421.099,254.9L332,375.801v-103.2l60.601-85.201c2.999-4.2,8.099-6.599,13.2-6.301
	c5.4,0.3,9.899,3.602,12.299,8.101l4.501,9C431.6,216.2,431,237.499,421.099,254.9z"/>
<path style="fill:#19DEC1;" d="M227,512c-41.353,0-75-33.647-75-75s33.647-75,75-75s75,33.647,75,75S268.353,512,227,512z M227,392
	c-24.814,0-45,20.186-45,45s20.186,45,45,45s45-20.186,45-45S251.814,392,227,392z"/>
<path style="fill:#17CEB4;" d="M437,512c-41.353,0-75-33.647-75-75s33.647-75,75-75s75,33.647,75,75S478.353,512,437,512z M437,392
	c-24.814,0-45,20.186-45,45s20.186,45,45,45s45-20.186,45-45S461.814,392,437,392z"/>
<path style="fill:#FCBF29;" d="M185.3,167l-65.7,98.401c-4.499,6.599-13.799,8.699-21,4.199c-6.899-4.799-8.699-14.099-4.199-21
	L148.7,167H185.3z"/>
<g>
</g>
<g>
</g>
<g>
</g>
<g>
</g>
<g>
</g>
<g>
</g>
<g>
</g>
<g>
</g>
<g>
</g>
<g>
</g>
<g>
</g>
<g>
</g>
<g>
</g>
<g>
</g>
<g>
</g>
</svg>
