<svg id="Capa_1" enable-background="new 0 0 512 512" height="512" viewBox="0 0 512 512" width="512" xmlns="http://www.w3.org/2000/svg"><g><path d="m211 121c0 8.276-6.738 15-15 15s-15-6.724-15-15l-15 23.21v214.58l15 32.21c0-8.276 6.738-15 15-15s15 6.724 15 15l15-36v-212.21z" fill="#f66"/><path d="m211 391 15-36v-212.21l-15-21.79c0 8.276-6.738 15-15 15v240c8.262 0 15 6.724 15 15z" fill="#e64551"/><path d="m497 106h-136-135c-8.291 0-15 6.709-15 15v60c0 8.291-6.709 15-15 15l-15 15 15 15c8.291 0 15 6.709 15 15v30c0 8.291-6.709 15-15 15l-15 18.316 15 11.684c8.291 0 15 6.709 15 15v60c0 8.291 6.709 15 15 15h135 136c8.291 0 15-6.709 15-15v-270c0-8.291-6.709-15-15-15z" fill="#f66"/><path d="m512 391v-270c0-8.291-6.709-15-15-15h-136v300h136c8.291 0 15-6.709 15-15z" fill="#e64551"/><path d="m181 271v-30c0-8.291 6.709-15 15-15v-30c-8.291 0-15-6.709-15-15v-60c0-8.291-6.709-15-15-15h-151c-8.291 0-15 6.709-15 15v270c0 8.291 6.709 15 15 15h151c8.291 0 15-6.709 15-15v-60c0-8.291 6.709-15 15-15v-30c-8.291 0-15-6.709-15-15z" fill="#ffd34d"/><g><circle cx="391" cy="301" fill="#d9e5ff" r="15"/></g><g><circle cx="331" cy="211" fill="#ecf2ff" r="15"/></g><g><path d="m136 211h-60c-8.291 0-15-6.709-15-15s6.709-15 15-15h60c8.291 0 15 6.709 15 15s-6.709 15-15 15z" fill="#fb3"/></g><g><path d="m136 271h-60c-8.291 0-15-6.709-15-15s6.709-15 15-15h60c8.291 0 15 6.709 15 15s-6.709 15-15 15z" fill="#fb3"/></g><g><path d="m136 331h-60c-8.291 0-15-6.709-15-15s6.709-15 15-15h60c8.291 0 15 6.709 15 15s-6.709 15-15 15z" fill="#fb3"/></g><path d="m399.32 198.52c-6.855-4.541-16.172-2.739-20.801 4.16l-17.519 26.279-42.48 63.721c-4.6 6.899-2.725 16.201 4.16 20.801 6.837 4.557 16.152 2.789 20.801-4.16l17.519-26.28 42.48-63.721c4.6-6.899 2.725-16.201-4.16-20.8z" fill="#ecf2ff"/><path d="m399.32 198.52c-6.855-4.541-16.172-2.739-20.801 4.16l-17.519 26.279v54.082l42.48-63.721c4.6-6.899 2.725-16.201-4.16-20.8z" fill="#d9e5ff"/></g></svg>