<svg id="Capa_1" enable-background="new 0 0 512 512" height="512" viewBox="0 0 512 512" width="512" xmlns="http://www.w3.org/2000/svg" xmlns:xlink="http://www.w3.org/1999/xlink"><linearGradient id="SVGID_1_" gradientUnits="userSpaceOnUse" x1="276" x2="276" y1="121" y2="345"><stop offset=".00000036422" stop-color="#a8abff"/><stop offset="1" stop-color="#fac8ff"/></linearGradient><linearGradient id="SVGID_2_" gradientUnits="userSpaceOnUse" x1="256" x2="256" y1="113.5" y2="398.5"><stop offset=".00000011981" stop-color="#174fa3"/><stop offset="1" stop-color="#b044af"/></linearGradient><g id="Filled_44_"><path d="m180.097 345h309.403c8.284 0 15-6.716 15-15v-194c0-8.284-6.716-15-15-15h-442v46h132.597z" fill="url(#SVGID_1_)"/><path d="m7.5 167v57c30.376 0 55 24.624 55 55s-24.624 55-55 55v57h442c8.284 0 15-6.716 15-15v-194c0-8.284-6.716-15-15-15z" fill="#fff"/><path d="m489.5 113.5h-449.5v46h-40v72h7.5c26.191 0 47.5 21.309 47.5 47.5s-21.309 47.5-47.5 47.5h-7.5v72h449.5c12.407 0 22.5-10.094 22.5-22.5v-23.5h17.5c12.407 0 22.5-10.094 22.5-22.5v-194c0-12.406-10.093-22.5-22.5-22.5zm-32.5 262.5c0 4.136-3.364 7.5-7.5 7.5h-250.5v-66.5h-15v66.5h-169v-42.447c30.941-3.716 55-30.127 55-62.053s-24.059-58.337-55-62.053v-42.447h169v67.5h15v-67.5h250.5c4.136 0 7.5 3.364 7.5 7.5zm40-46c0 4.136-3.364 7.5-7.5 7.5h-17.5v-155.5c0-12.406-10.093-22.5-22.5-22.5h-394.5v-31h434.5c4.136 0 7.5 3.364 7.5 7.5zm-313-43h15v15h-15zm0-30h15v15h-15zm211.303-29.946-115.5 115.5-10.606-10.607 115.5-115.5zm-71.803 6.446c0-17.921-14.58-32.5-32.5-32.5s-32.5 14.579-32.5 32.5 14.58 32.5 32.5 32.5 32.5-14.579 32.5-32.5zm-50 0c0-9.649 7.851-17.5 17.5-17.5s17.5 7.851 17.5 17.5-7.851 17.5-17.5 17.5-17.5-7.851-17.5-17.5zm107.5 58.5c-17.92 0-32.5 14.579-32.5 32.5s14.58 32.5 32.5 32.5 32.5-14.579 32.5-32.5-14.58-32.5-32.5-32.5zm0 50c-9.649 0-17.5-7.851-17.5-17.5s7.851-17.5 17.5-17.5 17.5 7.851 17.5 17.5-7.851 17.5-17.5 17.5zm-284.5-121.5h51v15h-51zm0 34h51v15h-51zm0 34h51v15h-51zm0 34h51v15h-51z" fill="url(#SVGID_2_)"/></g></svg>